name rise44.8762peak52.3436fall86.788.mot
datacolumns 19
datarows 29
range 3.94664700000000 3.99331500000000
endheader
time	ground_force1_vx	ground_force1_vy	ground_force1_vz	ground_force1_px	ground_force1_py	ground_force1_pz	ground_force2_vx	ground_force2_vy	ground_force2_vz	ground_force2_px	ground_force2_py	ground_force2_pz	ground_torque1_x	ground_torque1_y	ground_torque1_z	ground_torque2_x	ground_torque2_y	ground_torque2_z	
3.94664700000000	-37.68524000000000	797.99895100000003	46.05377400000000	0.08561400000000	0.00000000000000	0.09106700000000	-12.83442300000000	95.18537800000000	13.71560900000000	0.31893900000000	0.00000000000000	-0.08018600000000	0.00000000000000	15.78726300000000	0.00000000000000	0.00000000000000	7.35197000000000	0.00000000000000	
3.94831900000000	-38.24316900000000	796.07547499999998	46.06809800000000	0.08494100000000	0.00000000000000	0.09108300000000	-12.79316900000000	100.98575900000000	14.03528000000000	0.32143500000000	0.00000000000000	-0.08040000000000	0.00000000000000	15.75154700000000	0.00000000000000	0.00000000000000	7.60561700000000	0.00000000000000	
3.94998100000000	-38.81484000000000	794.01934600000004	46.05837800000000	0.08428200000000	0.00000000000000	0.09109600000000	-12.65111900000000	106.66515699999999	14.27970600000000	0.32381200000000	0.00000000000000	-0.08060300000000	0.00000000000000	15.71628100000000	0.00000000000000	0.00000000000000	7.82515200000000	0.00000000000000	
3.95164900000000	-39.40004500000000	791.82926199999997	46.02388300000000	0.08363700000000	0.00000000000000	0.09110700000000	-12.42436300000000	112.27314000000000	14.46091700000000	0.32607800000000	0.00000000000000	-0.08079600000000	0.00000000000000	15.68148300000000	0.00000000000000	0.00000000000000	8.01624300000000	0.00000000000000	
3.95331900000000	-39.99852500000000	789.50398600000005	45.96393900000000	0.08300600000000	0.00000000000000	0.09111500000000	-12.12812200000000	117.85902299999999	14.59044600000000	0.32824000000000	0.00000000000000	-0.08098200000000	0.00000000000000	15.64716500000000	0.00000000000000	0.00000000000000	8.18441900000000	0.00000000000000	
3.95498300000000	-40.60997100000000	787.04234299999996	45.87793200000000	0.08239000000000	0.00000000000000	0.09112200000000	-11.77583500000000	123.46808100000000	14.67854600000000	0.33030500000000	0.00000000000000	-0.08116000000000	0.00000000000000	15.61333200000000	0.00000000000000	0.00000000000000	8.33464800000000	0.00000000000000	
3.95665000000000	-41.23402600000000	784.44322199999999	45.76531100000000	0.08178600000000	0.00000000000000	0.09112600000000	-11.37855700000000	129.13870299999999	14.73364000000000	0.33227600000000	0.00000000000000	-0.08133300000000	0.00000000000000	15.57998000000000	0.00000000000000	0.00000000000000	8.47102600000000	0.00000000000000	
3.95831600000000	-41.87027900000000	781.70557399999996	45.62559000000000	0.08119600000000	0.00000000000000	0.09112700000000	-10.94462800000000	134.90055300000000	14.76201400000000	0.33415700000000	0.00000000000000	-0.08150200000000	0.00000000000000	15.54709600000000	0.00000000000000	0.00000000000000	8.59659500000000	0.00000000000000	
3.95998200000000	-42.51827100000000	778.82841399999995	45.45835000000000	0.08061700000000	0.00000000000000	0.09112500000000	-10.47961800000000	140.77368999999999	14.76771300000000	0.33595400000000	0.00000000000000	-0.08166800000000	0.00000000000000	15.51466200000000	0.00000000000000	0.00000000000000	8.71326100000000	0.00000000000000	
3.96165100000000	-43.17748800000000	775.81081800000004	45.26324000000000	0.08005100000000	0.00000000000000	0.09112100000000	-9.98648300000000	146.76854900000001	14.75263500000000	0.33766700000000	0.00000000000000	-0.08183100000000	0.00000000000000	15.48264800000000	0.00000000000000	0.00000000000000	8.82182600000000	0.00000000000000	
3.96331500000000	-43.84736300000000	772.65192300000001	45.03997900000000	0.07949500000000	0.00000000000000	0.09111500000000	-9.46588700000000	152.88661300000001	14.71676500000000	0.33930100000000	0.00000000000000	-0.08199200000000	0.00000000000000	15.45101800000000	0.00000000000000	0.00000000000000	8.92208600000000	0.00000000000000	
3.96498100000000	-44.52727800000000	769.35092999999995	44.78835900000000	0.07894900000000	0.00000000000000	0.09110600000000	-8.91664700000000	159.12161300000000	14.65850800000000	0.34085600000000	0.00000000000000	-0.08215200000000	0.00000000000000	15.41972600000000	0.00000000000000	0.00000000000000	9.01299500000000	0.00000000000000	
3.96664600000000	-45.21656000000000	765.90709900000002	44.50824300000000	0.07841300000000	0.00000000000000	0.09109400000000	-8.33622600000000	165.46106499999999	14.57508400000000	0.34233400000000	0.00000000000000	-0.08231200000000	0.00000000000000	15.38872000000000	0.00000000000000	0.00000000000000	9.09286500000000	0.00000000000000	
3.96832000000000	-45.91447900000000	762.31975299999999	44.19957000000000	0.07788400000000	0.00000000000000	0.09107900000000	-7.72124100000000	171.88796300000001	14.46294100000000	0.34373800000000	0.00000000000000	-0.08247100000000	0.00000000000000	15.35794000000000	0.00000000000000	0.00000000000000	9.15957600000000	0.00000000000000	
3.96998700000000	-46.62025500000000	758.58827399999996	43.86235100000000	0.07736300000000	0.00000000000000	0.09106200000000	-7.06794300000000	178.38248200000001	14.31814700000000	0.34506700000000	0.00000000000000	-0.08263100000000	0.00000000000000	15.32731700000000	0.00000000000000	0.00000000000000	9.21078900000000	0.00000000000000	
3.97165100000000	-47.33304700000000	754.71210599999995	43.49667000000000	0.07684800000000	0.00000000000000	0.09104200000000	-6.37263800000000	184.92356100000001	14.13674800000000	0.34632400000000	0.00000000000000	-0.08279200000000	0.00000000000000	15.29677500000000	0.00000000000000	0.00000000000000	9.24412900000000	0.00000000000000	
3.97331900000000	-48.05196200000000	750.69075499999997	43.10268700000000	0.07633700000000	0.00000000000000	0.09102000000000	-5.63202900000000	191.49027100000001	13.91506300000000	0.34751000000000	0.00000000000000	-0.08295400000000	0.00000000000000	15.26623100000000	0.00000000000000	0.00000000000000	9.25735400000000	0.00000000000000	
3.97498400000000	-48.77605000000000	746.52378399999998	42.68063600000000	0.07583100000000	0.00000000000000	0.09099500000000	-4.84346900000000	198.06291700000000	13.64990700000000	0.34862400000000	0.00000000000000	-0.08311700000000	0.00000000000000	15.23559700000000	0.00000000000000	0.00000000000000	9.24847800000000	0.00000000000000	
3.97665400000000	-49.50430500000000	742.21082100000001	42.23082100000000	0.07532600000000	0.00000000000000	0.09096800000000	-4.00512700000000	204.62384299999999	13.33874500000000	0.34966800000000	0.00000000000000	-0.08328100000000	0.00000000000000	15.20477500000000	0.00000000000000	0.00000000000000	9.21585800000000	0.00000000000000	
3.97831200000000	-50.23566300000000	737.75155299999994	41.75362300000000	0.07482300000000	0.00000000000000	0.09093800000000	-3.11606000000000	211.15793199999999	12.97977800000000	0.35064200000000	0.00000000000000	-0.08344700000000	0.00000000000000	15.17366500000000	0.00000000000000	0.00000000000000	9.15824900000000	0.00000000000000	
3.97998700000000	-50.96900700000000	733.14572699999997	41.24949000000000	0.07432000000000	0.00000000000000	0.09090600000000	-2.17622200000000	217.65284299999999	12.57196000000000	0.35154700000000	0.00000000000000	-0.08361600000000	0.00000000000000	15.14215900000000	0.00000000000000	0.00000000000000	9.07481700000000	0.00000000000000	
3.98164700000000	-51.70316200000000	728.39315399999998	40.71894100000000	0.07381400000000	0.00000000000000	0.09087100000000	-1.18640600000000	224.09900500000001	12.11497200000000	0.35238300000000	0.00000000000000	-0.08378600000000	0.00000000000000	15.11014400000000	0.00000000000000	0.00000000000000	8.96513400000000	0.00000000000000	
3.98332000000000	-52.43689900000000	723.49370899999997	40.16256400000000	0.07330600000000	0.00000000000000	0.09083400000000	-0.14813900000000	230.48942700000001	11.60915100000000	0.35315100000000	0.00000000000000	-0.08395900000000	0.00000000000000	15.07750300000000	0.00000000000000	0.00000000000000	8.82914400000000	0.00000000000000	
3.98498700000000	-53.16893400000000	718.44732899999997	39.58101300000000	0.07279300000000	0.00000000000000	0.09079500000000	0.93643800000000	236.81937700000000	11.05539800000000	0.35385100000000	0.00000000000000	-0.08413300000000	0.00000000000000	15.04411400000000	0.00000000000000	0.00000000000000	8.66711200000000	0.00000000000000	
3.98664700000000	-53.89793000000000	713.25401899999997	38.97500600000000	0.07227400000000	0.00000000000000	0.09075400000000	2.06472300000000	243.08597399999999	10.45506600000000	0.35448300000000	0.00000000000000	-0.08431000000000	0.00000000000000	15.00985100000000	0.00000000000000	0.00000000000000	8.47957500000000	0.00000000000000	
3.98831300000000	-54.62249800000000	707.91385300000002	38.34532200000000	0.07174700000000	0.00000000000000	0.09071100000000	3.23378700000000	249.28774999999999	9.80985300000000	0.35504900000000	0.00000000000000	-0.08448900000000	0.00000000000000	14.97458600000000	0.00000000000000	0.00000000000000	8.26727700000000	0.00000000000000	
3.98998800000000	-55.34119600000000	702.42697599999997	37.69280200000000	0.07121100000000	0.00000000000000	0.09066700000000	4.44051500000000	255.42422700000000	9.12169100000000	0.35554800000000	0.00000000000000	-0.08467000000000	0.00000000000000	14.93818500000000	0.00000000000000	0.00000000000000	8.03111800000000	0.00000000000000	
3.99165000000000	-56.05253500000000	696.79361300000005	37.01834100000000	0.07066500000000	0.00000000000000	0.09062000000000	5.68171300000000	261.49551900000000	8.39265700000000	0.35598100000000	0.00000000000000	-0.08485400000000	0.00000000000000	14.90051500000000	0.00000000000000	0.00000000000000	7.77209800000000	0.00000000000000	
3.99331500000000	-56.75497800000000	691.01406499999996	36.32288900000000	0.07010700000000	0.00000000000000	0.09057200000000	6.95420800000000	267.50200999999998	7.62489600000000	0.35634900000000	0.00000000000000	-0.08503900000000	0.00000000000000	14.86143600000000	0.00000000000000	0.00000000000000	7.49128300000000	0.00000000000000	
